<svg xmlns="http://www.w3.org/2000/svg" viewBox="0 0 162.4 66.6">
  <path d="M30.1,8.9c-7-0.2-13.5,2.4-18.4,7.3c-4.9,4.9-7.5,11.5-7.3,18.4c0.4,13.1,11,23.7,24.1,24.1c0.3,0,0.6,0,0.8,0c6.6,0,12.9-2.6,17.6-7.3c4.9-4.9,7.5-11.5,7.3-18.4C53.8,19.9,43.2,9.3,30.1,8.9z M45.2,49.7c-4.4,4.4-10.3,6.8-16.6,6.6C16.8,55.9,7.2,46.4,6.8,34.6C6.6,28.3,9,22.4,13.4,17.9c4.2-4.2,9.9-6.6,15.9-6.6c0.2,0,0.5,0,0.7,0c11.8,0.4,21.4,9.9,21.7,21.7C52,39.4,49.6,45.3,45.2,49.7z" fill="currentColor"/>
  <path d="M28.5,18.2L28.5,18.2c-7.9,0.4-14.4,6.9-14.8,14.8c-0.2,4.4,1.4,8.8,4.6,11.9c2.9,2.9,7,4.6,11.1,4.6c0.3,0,0.5,0,0.8,0C38,49.1,44.6,42.6,45,34.6c0.2-4.4-1.4-8.8-4.6-11.9C37.3,19.6,32.9,17.9,28.5,18.2z M42.5,34.5C42.2,41.2,36.7,46.7,30,47c-3.7,0.2-7.4-1.2-10-3.9c-2.6-2.6-4-6.3-3.9-10c0.3-6.7,5.8-12.2,12.5-12.5c0.2,0,0.5,0,0.7,0c3.5,0,6.9,1.4,9.4,3.9C41.3,27.1,42.7,30.8,42.5,34.5z" fill="currentColor"/>
  <polygon points="97.1,20.3 97.1,17.8 72.4,17.8 72.4,29.5 89.7,29.5 89.7,27.1 74.9,27.1 74.9,20.3" fill="currentColor"/>
  <polygon points="72.4,59 74.9,59 74.9,38.5 89.7,38.5 89.7,36 72.4,36" fill="currentColor"/>
  <polygon points="97.1,8.9 62.9,8.9 62.9,58.9 65.3,58.9 65.3,11.4 97.1,11.4" fill="currentColor"/>
  <polygon points="150.9,7 149,5.4 118.6,42.7 104.2,31 102.6,32.8 119,46.2" fill="currentColor"/>
  <polygon points="156.2,11.3 120.2,55.5 98.5,37.9 97,39.8 120.5,58.9 158.1,12.8" fill="currentColor"/>
</svg>
